HIERARCHY
ROOT Hips
{
	OFFSET	0.00	0.00	0.00
	CHANNELS 6 Xposition Yposition Zposition Zrotation Xrotation Yrotation
	JOINT Spine
	{
		OFFSET	 0.00	0.01	 0.00
		CHANNELS 3 Zrotation Xrotation Yrotation
		JOINT Spine1
		{
			OFFSET	 0.00	 2.45913012437421	 0.00
			CHANNELS 3 Zrotation Xrotation Yrotation
            JOINT Neck
            {
                OFFSET	 0.00	 2.48462964506057	 0.00
                CHANNELS 3 Zrotation Xrotation Yrotation
                JOINT Head
                {
                    OFFSET	 0.00	 0.927524780924562	 0.00
                    CHANNELS 3 Zrotation Xrotation Yrotation
                    End Site 
                    {
                        OFFSET	 0.00	 1.14999962169752	 0.00
                    }
                }
            }
			JOINT LeftShoulder
			{
				OFFSET	 0.00	 2.48462964506057	 0.00
				CHANNELS 3 Zrotation Xrotation Yrotation
				JOINT LeftUpArm
				{
					OFFSET	 0.00	 1.24881979654096	 0.00
					CHANNELS 3 Zrotation Xrotation Yrotation
					JOINT LeftForeArm
					{
						OFFSET	 0.00	2.59758046908119	 0.00
						CHANNELS 3 Zrotation Xrotation Yrotation
						JOINT LeftHand
						{
							OFFSET	 0.00	2.45542024364365	 0.00
							CHANNELS 3 Zrotation Xrotation Yrotation
							JOINT LeftHandThumb 
							{
								OFFSET	 0.00	0.00	 0.00
								CHANNELS 3 Zrotation Xrotation Yrotation
								End Site
								{
									OFFSET	 0.00	0.00	1.00000003353624
								}
							}
							JOINT L_Wrist_End 
							{
								OFFSET	 0.00	0.99999967115358	 0.00
								CHANNELS 3 Zrotation Xrotation Yrotation
								End Site 
								{
									OFFSET	 0.00	 0.00	 0.00
								}
							}
						}
					}
				}
			}
			JOINT RightShoulder
			{
				OFFSET	 0.00	 2.48462964506057	 0.00
				CHANNELS 3 Zrotation Xrotation Yrotation
				JOINT RightUpArm
				{
					OFFSET	 0.00	 1.24881979654096	 0.00
					CHANNELS 3 Zrotation Xrotation Yrotation
					JOINT RightForeArm
					{
						OFFSET	 0.00	2.59758046908119	 0.00
						CHANNELS 3 Zrotation Xrotation Yrotation
						JOINT RightHand
						{
							OFFSET	 0.00	2.45542024364365	 0.00
							CHANNELS 3 Zrotation Xrotation Yrotation
							JOINT RightHandThumb 
							{
								OFFSET	 0.00	0.00	 0.00
								CHANNELS 3 Zrotation Xrotation Yrotation
								End Site
								{
									OFFSET	 0.00	0.00	1.00000003353624
								}
							}
							JOINT R_Wrist_End 
							{
								OFFSET	 0.00	0.99999967115358	 0.00
								CHANNELS 3 Zrotation Xrotation Yrotation
								End Site 
								{
									OFFSET	 0.00	 0.00	 0.00
								}
							}
						}
					}
				}
			}
		}
	}
	JOINT LeftUpLeg
	{
		OFFSET	 1.2719394002717	 0.00	 0.00
		CHANNELS 3 Zrotation Xrotation Yrotation
		JOINT LeftLowLeg
		{
			OFFSET	 0.00	-4.3429100912261	 0.00
			CHANNELS 3 Zrotation Xrotation Yrotation
			JOINT LeftFoot
			{
				OFFSET	 0.00	-4.48767017425826	 0.00
				CHANNELS 3 Zrotation Xrotation Yrotation
				JOINT LeftToeBase
                {
                    OFFSET	 0.00	0.00	 1.51507020887566
                    CHANNELS 3 Zrotation Xrotation Yrotation
                    End Site 
                    {
                        OFFSET	 0.00	0.00	 0.75000010571191
                    }
                }
			}
		}
	}
	JOINT RightUpLeg
	{
		OFFSET	 -1.2719393604653	 0.00	 0.00
		CHANNELS 3 Zrotation Xrotation Yrotation
		JOINT RightLowLeg
		{
			OFFSET	 0.00	-4.3429100912261	 0.00
			CHANNELS 3 Zrotation Xrotation Yrotation
			JOINT RightFoot
			{
				OFFSET	 0.00	-4.48767017425826	 0.00
				CHANNELS 3 Zrotation Xrotation Yrotation
				JOINT RightToeBase
                {
                    OFFSET	 0.00	0.00	 1.51507020887566
                    CHANNELS 3 Zrotation Xrotation Yrotation
                    End Site 
                    {
                        OFFSET	 0.00	0.00	 0.749999965609858
                    }
                }   
			}
		}
	}
}
MOTION 
Frames:	10 
Frame Time: 0.02 
 3.0023098754882813 11.108199462890624 9.821810302734375 -155.068 81.925 157.506 2.97247 -9.88778 -2.2089 0.141192 6.63784 -2.67666 -4.33204 34.6858 2.76754 14.8278 -53.8803 9.22756 -93.21715 -12.5943 -0.689726 -11.3665 4.57372 -31.6447 0.0 19.6073 0.0 24.567 -7.93556 22.3511 0.0 0.0 0.0 0.0 0.0 0.0 100.4371 -9.31852 -0.388275 9.23619 0.511264 35.2793 0.0 20.7278 0.0 -16.4474 -1.0121 -25.6612 0.0 0.0 0.0 0.0 0.0 0.0 5.76228 -5.35112 -0.249517 0.0 7.5143 0.0 -11.2557 5.6451197 0.512331 0.0 -38.0047 0.0 1.86546 -3.59742 4.80034 0.0 6.39837 0.0 10.1661 8.98499 -7.66178 0.0 -27.739101 0.0 
  3.0023098754882813 11.108199462890624 9.821810302734375 -155.068 81.925 157.506 2.97247 -9.88778 -2.2089 0.141192 6.63784 -2.67666 -4.33204 34.6858 2.76754 14.8278 -53.8803 9.22756 -93.21715 -12.5943 -0.689726 -11.3665 4.57372 -31.6447 0.0 19.6073 0.0 24.567 -7.93556 22.3511 0.0 0.0 0.0 0.0 0.0 0.0 100.4371 -9.31852 -0.388275 9.23619 0.511264 35.2793 0.0 20.7278 0.0 -16.4474 -1.0121 -25.6612 0.0 0.0 0.0 0.0 0.0 0.0 5.76228 -5.35112 -0.249517 0.0 7.5143 0.0 -11.2557 5.6451197 0.512331 0.0 -38.0047 0.0 1.86546 -3.59742 4.80034 0.0 6.39837 0.0 10.1661 8.98499 -7.66178 0.0 -27.739101 0.0 
  3.0018301391601563 11.106800537109375 9.821790161132812 -155.061 81.9164 157.515 2.94421 -9.92339 -2.23442 0.195869 6.67822 -2.69436 -4.3713 34.6451 2.86305 14.8418 -53.8327 9.27142 -93.2312 -12.5904 -0.703975 -11.4383 4.5414 -31.886 0.0 19.6732 0.0 24.4818 -8.03505 22.3373 0.0 0.0 0.0 0.0 0.0 0.0 100.3982 -9.25996 -0.359514 9.21908 0.436373 35.2878 0.0 20.7515 0.0 -16.5206 -0.972083 -25.6937 0.0 0.0 0.0 0.0 0.0 0.0 5.76555 -5.35934 -0.295721 0.0 7.52629 0.0 -11.2668 5.6291504 0.540863 0.0 -37.987 0.0 1.87336 -3.59367 4.80256 0.0 6.39734 0.0 10.157 8.975719 -7.68018 0.0 -27.7322 0.0 
  3.0017800903320313 11.106400146484376 9.82177978515625 -155.08 81.9124 157.538 2.93876 -9.9233 -2.23609 0.202381 6.662 -2.69444 -4.38161 34.6486 2.90002 14.8743 -53.819 9.30037 -93.22902 -12.5719 -0.705973 -11.4779 4.51725 -31.9787 0.0 19.7038 0.0 24.4991 -8.06417 22.2569 0.0 0.0 0.0 0.0 0.0 0.0 100.386 -9.25707 -0.356609 9.2154 0.420669 35.2806 0.0 20.7588 0.0 -16.5664 -0.975685 -25.7468 0.0 0.0 0.0 0.0 0.0 0.0 5.76902 -5.36347 -0.232783 0.0 7.52467 0.0 -11.2614 5.64248 0.476387 0.0 -37.9973 0.0 1.87193 -3.59562 4.80599 0.0 6.3985 0.0 10.1682 8.97149 -7.68199 0.0 -27.734299 0.0 
  3.0014898681640627 11.105999755859376 9.82166015625 -155.075 81.9093 157.533 2.9358 -9.9212 -2.23275 0.204975 6.65424 -2.69017 -4.36032 34.6464 2.90352 14.8909 -53.7983 9.36093 -93.22126 -12.575 -0.706029 -11.517 4.52831 -32.0513 0.0 19.7188 0.0 24.4954 -8.07297 22.1551 0.0 0.0 0.0 0.0 0.0 0.0 100.3825 -9.2856 -0.36994 9.20359 0.445067 35.2875 0.0 20.7543 0.0 -16.6023 -0.964962 -25.7667 0.0 0.0 0.0 0.0 0.0 0.0 5.76708 -5.37131 -0.315756 0.0 7.5435 0.0 -11.2715 5.61112 0.554094 0.0 -37.9722 0.0 1.87545 -3.59731 4.80839 0.0 6.40137 0.0 10.1695 8.9670105 -7.68012 0.0 -27.735401 0.0 
  3.001099853515625 11.10530029296875 9.821530151367188 -155.09 81.9029 157.555 2.93669 -9.92487 -2.23439 0.187771 6.64528 -2.69229 -4.34999 34.6252 2.95815 14.9578 -53.7547 9.457 -93.20473 -12.5541 -0.703563 -11.5575 4.47715 -32.0115 0.0 19.7405 0.0 24.404 -8.06374 22.1439 0.0 0.0 0.0 0.0 0.0 0.0 100.3681 -9.26321 -0.340099 9.21409 0.399987 35.2448 0.0 20.7653 0.0 -16.6104 -1.00485 -25.7754 0.0 0.0 0.0 0.0 0.0 0.0 5.77141 -5.36639 -0.301823 0.0 7.52476 0.0 -11.2735 5.62086 0.534563 0.0 -38.0108 0.0 1.87742 -3.59539 4.78803 0.0 6.39421 0.0 10.151 8.9652195 -7.67136 0.0 -27.7313 0.0 
  3.0008099365234373 11.105 9.821510009765625 -155.108 81.8961 157.573 2.93416 -9.92623 -2.2374 0.18103 6.635 -2.69475 -4.34798 34.6096 2.9863 14.9854 -53.7202 9.48511 -93.21296 -12.5501 -0.690498 -11.5378 4.4594 -31.9302 0.0 19.715 0.0 24.3117 -8.0489 22.3049 0.0 0.0 0.0 0.0 0.0 0.0 100.3506 -9.25321 -0.333561 9.2377 0.386431 35.2463 0.0 20.7721 0.0 -16.5802 -1.01069 -25.7746 0.0 0.0 0.0 0.0 0.0 0.0 5.77586 -5.36237 -0.260505 0.0 7.50466 0.0 -11.2721 5.63196 0.496613 0.0 -37.9753 0.0 1.87934 -3.59924 4.78354 0.0 6.39286 0.0 10.1602 8.96511 -7.66641 0.0 -27.7327 0.0 
  3.0002301025390623 11.104100341796874 9.821339721679687 -155.179 81.8763 157.642 3.01566 -9.89135 -2.16969 0.00244178 6.4976 -2.65 -4.20573 34.6999 2.8734 15.1187 -53.6825 9.62801 -93.08514 -12.4588 -0.627804 -11.5815 4.44085 -31.8534 0.0 19.6722 0.0 24.2692 -8.07009 22.4348 0.0 0.0 0.0 0.0 0.0 0.0 100.4279 -9.37237 -0.400654 9.22884 0.43373 35.2366 0.0 20.7401 0.0 -16.5991 -1.00645 -25.7596 0.0 0.0 0.0 0.0 0.0 0.0 5.7792 -5.37112 -0.23526 0.0 7.48803 0.0 -11.261 5.64132 0.481612 0.0 -38.0169 0.0 1.88079 -3.61173 4.7812 0.0 6.38343 0.0 10.1656 8.9608 -7.66103 0.0 -27.7302 0.0 
  2.9997601318359375 11.103599853515625 9.821400146484375 -155.204 81.8617 157.669 3.00229 -9.90704 -2.17869 0.0132703 6.48402 -2.65536 -4.19719 34.7241 2.87812 15.1263 -53.6605 9.65757 -93.08753 -12.4645 -0.61461 -11.6026 4.44259 -31.8499 0.0 19.623 0.0 24.2808 -8.11378 22.1942 0.0 0.0 0.0 0.0 0.0 0.0 100.4185 -9.34153 -0.392755 9.21873 0.402418 35.1894 0.0 20.739 0.0 -16.6071 -0.981508 -25.7546 0.0 0.0 0.0 0.0 0.0 0.0 5.78252 -5.388 -0.257551 0.0 7.49829 0.0 -11.2627 5.63183 0.504929 0.0 -37.9981 0.0 1.8854 -3.61539 4.74741 0.0 6.36616 0.0 10.1356 8.97705 -7.64492 0.0 -27.7486 0.0 
  2.999289855957031 11.10300048828125 9.821370239257812 -155.204 81.8537 157.658 2.99548 -9.90607 -2.17374 0.0174129 6.45565 -2.64837 -4.18735 34.7681 2.86927 15.1284 -53.6567 9.6832 -93.08554 -12.4664 -0.600222 -11.6361 4.43363 -31.9467 0.0 19.6332 0.0 24.2077 -8.11323 22.1951 0.0 0.0 0.0 0.0 0.0 0.0 100.4186 -9.33909 -0.388642 9.20445 0.392526 35.1849 0.0 20.7426 0.0 -16.6247 -0.984277 -25.6262 0.0 0.0 0.0 0.0 0.0 0.0 5.78896 -5.39154 -0.261415 0.0 7.50335 0.0 -11.2638 5.6246405 0.51547 0.0 -38.0129 0.0 1.89295 -3.62249 4.76932 0.0 6.37074 0.0 10.1293 8.97297 -7.65482 0.0 -27.7331 0.0 
